<?xml version="1.0" encoding="utf-8"?>
<!-- Generator: Adobe Illustrator 22.0.1, SVG Export Plug-In . SVG Version: 6.00 Build 0)  -->
<svg version="1.1" id="Layer_1" xmlns="http://www.w3.org/2000/svg" xmlns:xlink="http://www.w3.org/1999/xlink" x="0px" y="0px"
	 viewBox="0 0 512 512" style="enable-background:new 0 0 512 512;" xml:space="preserve">
<style type="text/css">
	.st0{fill:#B6D6C3;}
	.st1{fill:#006933;}
</style>
<g>
	<path class="st0" d="M496,248H387.1c3.1,18.5,4.8,37.2,4.9,56c-0.1,18.8-1.8,37.5-4.9,56H496C506.7,323.4,506.7,284.6,496,248z"/>
	<path class="st0" d="M216.7,304c0.1-18.8,1.8-37.5,4.9-56H112c-10.7,36.6-10.7,75.4,0,112h109.6C218.5,341.5,216.8,322.8,216.7,304
		z"/>
	<path class="st0" d="M240.7,376c9.6,45.8,27.5,93.3,53.1,127.7c3.4,0.2,6.8,0.3,10.2,0.3c3.6,0,7.3-0.1,10.9-0.3
		c25.6-34.4,43.5-81.9,53.1-127.7L240.7,376z"/>
	<path class="st0" d="M232.7,304c0.1,18.8,1.8,37.5,5,56H371c3.2-18.5,4.9-37.2,5-56c-0.1-18.8-1.8-37.5-5-56H237.7
		C234.5,266.5,232.8,285.2,232.7,304L232.7,304z"/>
	<path class="st0" d="M367.9,232c-9.5-45.8-27.5-93.3-53.1-127.7c-3.6-0.2-7.2-0.3-10.9-0.3c-3.4,0-6.8,0.1-10.2,0.3
		c-25.6,34.4-43.6,82-53.1,127.7H367.9z"/>
	<path class="st0" d="M490.5,232c-25.7-66.3-84.6-114-154.7-125.4c23.6,38.6,39.9,81.1,48.4,125.4H490.5z"/>
	<path class="st0" d="M335.8,501.4C406,490,464.8,442.3,490.5,376H384.1C375.7,420.4,359.4,462.9,335.8,501.4z"/>
	<path class="st0" d="M117.5,376c25.8,66.5,85,114.4,155.5,125.6c-23.6-38.6-40-81.1-48.5-125.6H117.5z"/>
	<path class="st0" d="M272.9,106.4c-70.5,11.2-129.7,59.1-155.5,125.6h107C232.9,187.5,249.3,145,272.9,106.4z"/>
</g>
<path class="st1" d="M402.5,112.4l-95.4-31.8c-17.4-54.8-75.8-85.1-130.6-67.7c-32.2,10.2-57.5,35.5-67.7,67.7l-95.4,31.8
	c-3.3,1.1-5.5,4.1-5.5,7.6v280c0,4.4,3.6,8,8,8c0.9,0,1.7-0.1,2.5-0.4l93.5-31.2l93.5,31.2h0c1.6,0.5,3.4,0.5,5,0h0l93.5-31.2
	l93.5,31.2c4.2,1.4,8.7-0.9,10.1-5.1c0.3-0.8,0.4-1.7,0.4-2.5V120C408,116.6,405.8,113.5,402.5,112.4L402.5,112.4z M208,24
	c48.6,0.1,87.9,39.4,88,88c0,78.9-69.6,136.3-88,150.1c-18.4-13.8-88-71.3-88-150.1C120.1,63.4,159.4,24.1,208,24L208,24z M24,125.8
	l80-26.7v263.1l-80,26.7V125.8z M120,181.6c18.7,37.5,46.1,69.9,80,94.6v112.7l-80-26.7V181.6z M216,276.2
	c33.9-24.7,61.3-57.1,80-94.6v180.6l-80,26.7L216,276.2z M392,388.9l-80-26.7V99.1l80,26.7V388.9z"/>
<path class="st1" d="M208,152c22.1,0,40-17.9,40-40s-17.9-40-40-40s-40,17.9-40,40C168,134.1,185.9,152,208,152z M208,88
	c13.3,0,24,10.7,24,24s-10.7,24-24,24s-24-10.7-24-24S194.7,88,208,88z"/>
</svg>
