<?xml version="1.0" encoding="UTF-8" ?>
<!DOCTYPE svg PUBLIC "-//W3C//DTD SVG 1.1//EN" "http://www.w3.org/Graphics/SVG/1.1/DTD/svg11.dtd">
<svg width="90pt" height="94pt" viewBox="0 0 90 94" version="1.1" xmlns="http://www.w3.org/2000/svg">
<g id="#006933fe">
<path fill="#006933" opacity="1.00" d=" M 29.95 0.00 L 35.75 0.00 C 45.72 1.36 53.78 9.54 55.45 19.39 C 58.01 19.69 60.90 19.38 63.05 21.07 C 64.78 22.30 65.50 24.39 66.06 26.34 C 66.11 29.12 66.07 31.91 65.90 34.69 C 65.54 35.74 65.16 36.78 64.74 37.81 C 62.44 40.46 58.93 41.00 55.61 41.11 C 55.31 42.82 55.01 44.52 54.62 46.21 C 51.83 55.76 42.42 62.58 32.49 62.43 C 25.67 62.07 19.16 58.73 14.99 53.31 C 11.89 49.45 11.60 44.34 9.37 40.09 C 8.90 45.75 8.94 51.44 9.19 57.11 C 9.31 61.08 11.73 64.55 14.96 66.70 C 17.71 67.86 20.66 68.46 23.59 68.91 C 25.73 66.09 29.13 65.42 32.49 65.71 C 34.87 65.77 37.33 65.62 39.63 66.33 C 41.79 67.32 41.77 69.99 42.43 71.94 C 39.22 76.18 33.57 75.00 28.96 74.96 C 26.80 75.12 25.31 73.44 23.81 72.17 C 20.85 71.61 17.87 71.08 14.99 70.14 C 10.62 68.01 7.02 64.00 6.34 59.06 C 5.60 53.09 6.18 47.05 5.97 41.05 C 3.28 39.72 0.80 37.79 0.00 34.75 L 0.00 25.63 C 0.74 23.99 1.45 22.18 2.95 21.07 C 5.09 19.38 7.98 19.69 10.54 19.40 C 12.20 9.63 20.11 1.55 29.95 0.00 M 21.08 7.08 C 16.83 10.27 14.47 15.29 13.50 20.41 C 16.27 22.02 19.52 23.97 22.83 22.80 C 26.88 21.39 27.61 16.16 31.56 14.57 C 38.14 11.59 45.39 14.40 51.72 16.66 C 50.11 12.82 47.89 9.09 44.41 6.68 C 37.70 1.56 27.61 1.73 21.08 7.08 M 25.82 24.84 C 22.05 27.30 17.30 26.04 13.51 24.30 C 13.98 31.69 12.53 39.33 14.90 46.50 C 17.63 53.78 24.86 58.63 32.52 59.18 C 36.91 58.99 41.12 57.60 44.80 55.20 C 45.46 54.44 46.24 53.78 46.81 52.94 C 48.84 51.11 50.18 48.73 51.39 46.32 C 52.06 43.51 52.50 40.64 52.59 37.75 C 52.56 36.99 52.51 35.46 52.48 34.69 C 52.49 31.92 52.51 29.14 52.50 26.37 C 52.50 24.45 52.49 22.52 52.49 20.60 C 46.79 18.06 40.40 15.22 34.07 16.96 C 30.05 18.06 29.31 22.98 25.82 24.84 M 3.42 25.36 C 2.78 28.44 2.87 31.69 3.34 34.80 C 4.28 37.88 7.89 37.86 10.52 37.79 C 10.48 32.69 10.51 27.59 10.48 22.48 C 7.94 22.64 4.51 22.46 3.42 25.36 M 55.58 22.48 C 55.58 23.45 55.57 25.40 55.56 26.37 C 55.56 29.14 55.57 31.92 55.56 34.69 C 55.57 35.43 55.57 36.90 55.58 37.64 C 58.33 37.59 61.57 37.69 62.83 34.70 L 62.95 34.70 C 62.99 31.92 62.99 29.14 63.06 26.36 L 63.03 26.36 C 62.07 22.94 58.64 22.38 55.58 22.48 M 26.92 71.04 C 30.36 72.72 34.56 71.72 38.26 71.49 L 37.68 71.46 L 39.38 71.48 C 39.02 67.59 34.54 69.26 32.00 68.82 C 30.14 69.12 26.76 68.15 26.92 71.04 Z" />
</g>
<g id="#b6d5c3ff">
<path fill="#b6d5c3" opacity="1.00" d=" M 30.60 26.63 C 37.87 26.00 45.20 26.57 52.50 26.37 C 52.51 29.14 52.49 31.92 52.48 34.69 C 43.92 34.68 35.35 34.70 26.79 34.68 C 26.88 31.68 26.93 27.45 30.60 26.63 Z" />
<path fill="#b6d5c3" opacity="1.00" d=" M 55.56 26.37 C 58.05 26.38 60.54 26.38 63.03 26.36 L 63.06 26.36 C 62.99 29.14 62.99 31.92 62.95 34.70 L 62.83 34.70 C 60.41 34.68 57.99 34.69 55.56 34.69 C 55.57 31.92 55.56 29.14 55.56 26.37 Z" />
<path fill="#b6d5c3" opacity="1.00" d=" M 66.06 26.34 C 72.59 26.52 79.15 26.15 85.68 26.49 C 87.83 26.56 89.06 28.50 90.00 30.19 L 90.00 80.25 C 89.50 80.52 88.49 81.07 87.99 81.35 C 85.67 79.33 83.11 77.45 81.33 74.92 C 80.91 64.28 81.41 53.60 81.12 42.95 C 81.15 38.99 77.99 35.29 74.03 34.86 C 71.33 34.56 68.61 34.68 65.90 34.69 C 66.07 31.91 66.11 29.12 66.06 26.34 Z" />
<path fill="#b6d5c3" opacity="1.00" d=" M 16.36 39.41 C 17.75 37.74 20.08 37.77 22.06 37.73 C 32.23 37.76 42.41 37.76 52.59 37.75 C 52.50 40.64 52.06 43.51 51.39 46.32 C 49.89 46.31 48.39 46.31 46.89 46.31 C 46.90 48.52 46.90 50.73 46.81 52.94 C 46.24 53.78 45.46 54.44 44.80 55.20 C 43.30 54.64 41.11 55.28 40.01 53.94 C 39.64 51.39 39.84 48.81 39.78 46.25 C 37.45 46.49 34.84 45.81 32.71 46.97 C 32.27 51.02 32.55 55.12 32.52 59.18 C 24.86 58.63 17.63 53.78 14.90 46.50 C 15.12 44.14 14.54 41.29 16.36 39.41 Z" />
<path fill="#b6d5c3" opacity="1.00" d=" M 55.61 41.11 C 58.93 41.00 62.44 40.46 64.74 37.81 C 68.10 37.84 71.55 37.37 74.85 38.16 C 77.21 39.03 78.19 41.64 78.05 44.00 C 78.11 53.33 78.01 62.67 78.09 72.01 C 77.99 74.46 78.37 77.47 76.21 79.19 C 74.81 80.50 72.78 80.38 71.01 80.46 C 57.84 80.43 44.67 80.43 31.51 80.45 C 26.77 84.94 22.24 89.65 17.37 94.00 L 15.42 94.00 C 14.51 86.09 15.22 78.09 14.99 70.14 C 17.87 71.08 20.85 71.61 23.81 72.17 C 25.31 73.44 26.80 75.12 28.96 74.96 C 33.57 75.00 39.22 76.18 42.43 71.94 C 48.21 71.65 54.02 72.26 59.77 71.61 C 60.67 70.28 60.25 68.56 60.40 67.05 C 60.33 60.24 60.47 53.42 60.28 46.61 C 58.40 46.43 56.51 46.31 54.62 46.21 C 55.01 44.52 55.31 42.82 55.61 41.11 Z" />
<path fill="#b6d5c3" opacity="1.00" d=" M 14.99 53.31 C 19.16 58.73 25.67 62.07 32.49 62.43 C 32.49 63.52 32.49 64.62 32.49 65.71 C 29.13 65.42 25.73 66.09 23.59 68.91 C 20.66 68.46 17.71 67.86 14.96 66.70 C 15.02 62.23 15.01 57.77 14.99 53.31 Z" />
<path fill="#b6d5c3" opacity="1.00" d=" M 26.92 71.04 C 26.76 68.15 30.14 69.12 32.00 68.82 C 32.18 72.28 35.33 71.32 37.68 71.46 L 38.26 71.49 C 34.56 71.72 30.36 72.72 26.92 71.04 Z" />
</g>
</svg>
