<?xml version="1.0" encoding="utf-8"?>
<!-- Generator: Adobe Illustrator 22.0.1, SVG Export Plug-In . SVG Version: 6.00 Build 0)  -->
<svg version="1.1" id="Layer_1" xmlns="http://www.w3.org/2000/svg" xmlns:xlink="http://www.w3.org/1999/xlink" x="0px" y="0px"
	 viewBox="0 0 512 512" style="enable-background:new 0 0 512 512;" xml:space="preserve">
<style type="text/css">
	.st0{fill:#B6D6C3;}
	.st1{fill:#006933;}
</style>
<g>
	<path class="st0" d="M408,328h16v56h-16V328z"/>
	<path class="st0" d="M480,328h-40v64c0,4.4-3.6,8-8,8h-32c-4.4,0-8-3.6-8-8v-64h-40c-13.3,0-24,10.7-24,24v128
		c0,13.3,10.7,24,24,24h128c13.3,0,24-10.7,24-24V352C504,338.7,493.3,328,480,328z"/>
	<path class="st0" d="M304,120h16v56h-16V120z"/>
	<path class="st0" d="M248,296h128c13.3,0,24-10.7,24-24V144c0-13.3-10.7-24-24-24h-40v64c0,4.4-3.6,8-8,8h-32c-4.4,0-8-3.6-8-8v-64
		h-40c-13.3,0-24,10.7-24,24v128C224,285.3,234.7,296,248,296z"/>
	<path class="st0" d="M200,328h16v56h-16V328z"/>
	<path class="st0" d="M272,328h-40v64c0,4.4-3.6,8-8,8h-32c-4.4,0-8-3.6-8-8v-64h-40c-13.3,0-24,10.7-24,24v128
		c0,13.3,10.7,24,24,24h128c13.3,0,24-10.7,24-24V352C296,338.7,285.3,328,272,328z"/>
</g>
<path class="st1" d="M365.5,116.5L196.3,9.2c-2.6-1.7-5.9-1.7-8.6,0L18.2,116.7C11.8,121.2,8,128.5,8,136.3V344
	c0,13.3,10.7,24,24,24h320c13.3,0,24-10.7,24-24V136.3C376,128.4,372,120.9,365.5,116.5z M24,136.3c0-2.5,1.1-4.8,3.1-6.4L192,25.5
	l164.6,104.3c2.1,1.5,3.4,3.9,3.4,6.6V152H24L24,136.3z M136,272h112v24H136V272z M248,256H136v-16h112V256z M136,352v-40h112v40
	H136z M360,344c0,4.4-3.6,8-8,8h-88V232c0-4.4-3.6-8-8-8H128c-4.4,0-8,3.6-8,8v120H32c-4.4,0-8-3.6-8-8V168h336V344z"/>
</svg>
