<?xml version="1.0" encoding="utf-8"?>
<!-- Generator: Adobe Illustrator 22.0.1, SVG Export Plug-In . SVG Version: 6.00 Build 0)  -->
<svg version="1.1" id="Layer_1" xmlns="http://www.w3.org/2000/svg" xmlns:xlink="http://www.w3.org/1999/xlink" x="0px" y="0px"
	 viewBox="0 0 512 512" style="enable-background:new 0 0 512 512;" xml:space="preserve">
<style type="text/css">
	.st0{fill:#B6D6C3;}
	.st1{fill:#006933;}
</style>
<g>
	<path class="st0" d="M379,325.1l21.6-32.4l-35.3,17.6C371.1,314,375.8,319,379,325.1z"/>
	<circle class="st0" cx="344" cy="344" r="24"/>
	<path class="st0" d="M344,184c-88.4,0-160,71.6-160,160s71.6,160,160,160s160-71.6,160-160C503.9,255.7,432.3,184.1,344,184z
		 M430.7,276.4l-46.9,70.4c-1.5,22-20.6,38.6-42.6,37c-22-1.5-38.6-20.6-37-42.6c1.4-20,17.5-35.9,37.5-37.1l78.8-39.4
		c4-2,8.8-0.4,10.7,3.6C432.4,270.9,432.3,274,430.7,276.4L430.7,276.4z"/>
	<path class="st0" d="M288,152h32v17.7c15.9-2.2,32.1-2.2,48,0V152h32c4.4,0,8-3.6,8-8v-32c0-4.4-3.6-8-8-8H288c-4.4,0-8,3.6-8,8v32
		C280,148.4,283.6,152,288,152z"/>
</g>
<path class="st1" d="M401.9,134.1l-55.2-62.1c-4.6-5.1-11.1-8.1-17.9-8.1H264V32c0-13.3-10.7-24-24-24H32C18.7,8,8,18.7,8,32v192
	c0,13.3,10.7,24,24,24h24.8c4.4,21.6,25.5,35.6,47.2,31.2c15.7-3.2,28-15.5,31.2-31.2h153.6c4.4,21.6,25.5,35.6,47.2,31.2
	c15.7-3.2,28-15.5,31.2-31.2H384c13.3,0,24-10.7,24-24v-73.9C408,144.2,405.8,138.5,401.9,134.1L401.9,134.1z M24,224V32
	c0-4.4,3.6-8,8-8h208c4.4,0,8,3.6,8,8v200H135.2c-4.4-21.6-25.5-35.6-47.2-31.2C72.3,204,60,216.3,56.8,232H32
	C27.6,232,24,228.4,24,224z M96,264c-13.3,0-24-10.7-24-24s10.7-24,24-24s24,10.7,24,24S109.3,264,96,264z M328,264
	c-13.3,0-24-10.7-24-24s10.7-24,24-24s24,10.7,24,24S341.3,264,328,264z M392,224c0,4.4-3.6,8-8,8h-16.8
	c-4.4-21.6-25.5-35.6-47.2-31.2c-15.7,3.2-28,15.5-31.2,31.2H264V80h64.8c2.3,0,4.5,1,6,2.7l55.2,62.1c1.3,1.5,2,3.4,2,5.3L392,224z
	"/>
<path class="st1" d="M328,104h-40c-4.4,0-8,3.6-8,8s3.6,8,8,8h40c4.4,0,8-3.6,8-8S332.4,104,328,104z"/>
</svg>
