<?xml version="1.0" encoding="UTF-8" ?>
<!DOCTYPE svg PUBLIC "-//W3C//DTD SVG 1.1//EN" "http://www.w3.org/Graphics/SVG/1.1/DTD/svg11.dtd">
<svg width="90pt" height="90pt" viewBox="0 0 90 90" version="1.1" xmlns="http://www.w3.org/2000/svg">
<g id="#006933ff">
<path fill="#006933" opacity="1.00" d=" M 2.75 0.00 L 69.50 0.00 C 70.97 0.96 72.64 2.14 72.52 4.13 C 72.82 14.35 72.52 24.58 72.63 34.80 C 72.54 38.71 72.99 42.66 72.29 46.53 C 71.58 49.27 68.36 49.45 66.03 49.41 C 49.81 49.35 33.59 49.39 17.37 49.37 C 12.91 49.30 8.45 49.60 4.00 49.26 C 2.18 49.34 1.12 47.74 0.00 46.59 L 0.00 2.88 C 1.10 2.14 2.36 1.37 2.75 0.00 M 3.22 3.25 C 2.85 5.52 2.92 7.83 2.90 10.12 C 25.15 10.13 47.39 10.12 69.63 10.12 C 69.39 7.85 70.29 5.06 68.94 3.12 C 51.99 2.69 35.00 3.07 18.03 2.94 C 13.09 3.09 8.12 2.56 3.22 3.25 M 2.94 13.13 C 2.94 15.02 2.94 16.92 2.94 18.81 C 25.17 18.81 47.40 18.82 69.63 18.81 C 69.62 16.92 69.62 15.02 69.63 13.13 C 47.40 13.12 25.17 13.12 2.94 13.13 M 2.94 21.82 C 2.99 29.95 2.82 38.09 3.06 46.23 C 7.79 46.57 12.54 46.43 17.28 46.43 C 33.15 46.46 49.03 46.40 64.90 46.46 C 66.31 46.11 68.62 47.10 69.43 45.60 C 69.89 42.03 69.54 38.41 69.61 34.82 C 69.64 30.48 69.64 26.14 69.58 21.80 C 47.37 21.84 25.16 21.80 2.94 21.82 Z" />
<path fill="#006933" opacity="1.00" d=" M 38.90 34.82 C 39.85 32.10 41.23 29.10 44.19 28.13 C 46.85 26.87 49.67 28.14 52.28 28.83 C 54.98 28.05 57.96 26.83 60.67 28.28 C 63.46 29.32 64.71 32.19 65.62 34.80 C 65.15 37.71 64.31 41.00 61.46 42.46 C 58.62 44.39 55.22 43.21 52.27 42.28 C 49.43 43.16 46.21 44.36 43.42 42.64 C 40.39 41.25 39.32 37.86 38.90 34.82 M 41.74 34.74 L 43.02 34.77 L 41.82 34.76 C 42.25 37.52 43.81 40.69 47.07 40.61 C 50.43 40.83 52.06 37.58 52.61 34.79 C 51.33 32.76 49.77 30.22 46.97 30.52 C 44.37 30.46 42.99 32.88 41.74 34.74 M 54.31 30.92 C 54.63 32.23 54.95 33.53 55.29 34.84 C 54.99 36.61 54.68 38.38 54.36 40.15 C 56.18 40.29 58.22 41.02 59.88 39.92 C 61.85 38.96 62.06 36.58 62.80 34.78 C 61.34 31.37 57.89 29.72 54.31 30.92 Z" />
</g>
<g id="#b6d5c3ff">
<path fill="#b6d5c3" opacity="1.00" d=" M 65.62 34.80 C 66.95 34.81 68.28 34.81 69.61 34.82 C 69.54 38.41 69.89 42.03 69.43 45.60 C 68.62 47.10 66.31 46.11 64.90 46.46 C 49.03 46.40 33.15 46.46 17.28 46.43 C 17.36 44.41 17.30 42.38 17.64 40.39 C 18.22 37.44 20.95 35.05 23.97 34.92 C 28.94 34.62 33.92 34.89 38.90 34.82 C 39.32 37.86 40.39 41.25 43.42 42.64 C 46.21 44.36 49.43 43.16 52.27 42.28 C 55.22 43.21 58.62 44.39 61.46 42.46 C 64.31 41.00 65.15 37.71 65.62 34.80 Z" />
<path fill="#b6d5c3" opacity="1.00" d=" M 41.82 34.76 L 43.02 34.77 C 46.22 34.83 49.42 34.82 52.61 34.79 C 52.06 37.58 50.43 40.83 47.07 40.61 C 43.81 40.69 42.25 37.52 41.82 34.76 Z" />
<path fill="#b6d5c3" opacity="1.00" d=" M 55.29 34.84 C 57.79 34.82 60.29 34.81 62.80 34.78 C 62.06 36.58 61.85 38.96 59.88 39.92 C 58.22 41.02 56.18 40.29 54.36 40.15 C 54.68 38.38 54.99 36.61 55.29 34.84 Z" />
<path fill="#b6d5c3" opacity="1.00" d=" M 72.63 34.80 C 77.26 34.96 83.66 33.59 86.26 38.64 C 87.91 42.97 86.84 47.79 87.11 52.32 C 82.11 52.56 76.96 51.67 72.05 52.91 C 65.51 54.97 63.12 64.16 67.91 69.12 C 72.79 74.53 80.75 71.99 87.11 72.56 C 87.02 76.65 87.47 80.79 86.79 84.85 C 86.18 87.51 83.73 89.09 81.34 90.00 L 23.58 90.00 C 20.21 89.33 17.37 86.44 17.44 82.89 C 17.26 71.72 17.43 60.55 17.37 49.37 C 33.59 49.39 49.81 49.35 66.03 49.41 C 68.36 49.45 71.58 49.27 72.29 46.53 C 72.99 42.66 72.54 38.71 72.63 34.80 Z" />
<path fill="#b6d5c3" opacity="1.00" d=" M 70.37 57.33 C 73.14 54.42 77.46 55.24 81.04 55.08 C 84.05 55.29 87.59 54.34 90.00 56.68 L 90.00 68.21 C 87.54 70.42 84.08 69.54 81.09 69.73 C 77.69 69.52 73.77 70.40 70.90 68.09 C 67.59 65.56 67.33 60.16 70.37 57.33 M 73.53 59.62 C 71.53 60.64 71.29 63.81 73.24 65.02 C 75.00 66.52 77.94 65.24 78.31 63.03 C 78.94 60.47 75.74 58.15 73.53 59.62 Z" />
</g>
</svg>
