<?xml version="1.0" encoding="UTF-8" ?>
<!DOCTYPE svg PUBLIC "-//W3C//DTD SVG 1.1//EN" "http://www.w3.org/Graphics/SVG/1.1/DTD/svg11.dtd">
<svg width="90pt" height="104pt" viewBox="0 0 90 104" version="1.1" xmlns="http://www.w3.org/2000/svg">
<g id="#006933ff">
<path fill="#006933" opacity="1.00" d=" M 20.30 0.00 L 69.57 0.00 C 71.63 0.80 73.48 2.64 73.34 5.01 C 73.45 10.04 73.33 15.08 73.38 20.12 C 73.38 23.50 73.37 26.87 73.38 30.25 C 73.38 31.06 73.38 32.68 73.38 33.49 C 73.37 36.87 73.38 40.25 73.38 43.63 C 73.37 45.85 73.37 48.08 73.38 50.31 C 73.38 53.68 73.37 57.06 73.38 60.44 C 73.37 61.52 73.37 62.61 73.38 63.69 C 73.38 67.07 73.37 70.44 73.39 73.82 C 73.39 76.06 73.40 78.31 73.24 80.56 C 72.20 82.48 70.34 84.13 68.01 83.87 C 52.04 83.88 36.07 83.89 20.10 83.87 C 18.34 82.80 16.53 81.24 16.67 78.96 C 16.57 54.62 16.65 30.28 16.63 5.94 C 16.27 3.31 17.93 0.97 20.30 0.00 M 21.39 3.44 C 21.11 3.62 20.54 3.99 20.26 4.17 C 19.68 10.73 20.13 17.41 20.04 24.02 C 19.98 29.28 19.95 34.56 20.06 39.82 C 19.96 44.59 19.98 49.37 20.05 54.14 C 19.96 59.41 19.98 64.68 20.04 69.94 C 20.03 72.96 19.90 75.99 20.06 79.02 C 20.24 80.96 22.63 80.47 23.93 80.31 C 39.19 79.89 54.49 80.52 69.74 80.00 C 70.02 77.95 69.96 75.88 69.92 73.82 C 69.95 70.52 69.94 67.22 69.94 63.93 C 59.89 64.00 49.82 63.99 39.78 63.87 L 39.80 63.85 C 37.99 64.01 35.66 63.18 36.90 60.91 C 37.63 60.72 39.09 60.35 39.82 60.16 C 49.75 60.26 59.91 59.87 69.93 60.28 C 69.94 56.95 69.95 53.63 69.92 50.31 C 69.95 48.07 69.95 45.83 69.92 43.59 C 69.95 40.23 69.94 36.86 69.93 33.50 C 69.93 32.69 69.93 31.06 69.93 30.24 C 69.94 26.88 69.95 23.51 69.93 20.15 C 69.89 14.78 70.06 9.41 69.83 4.05 C 68.98 3.49 68.05 3.26 67.04 3.37 C 51.82 3.43 36.60 3.29 21.39 3.44 Z" />
<path fill="#006933" opacity="1.00" d=" M 4.36 10.52 C 8.40 8.79 14.05 12.37 13.39 16.96 C 13.31 34.31 13.48 51.68 13.31 69.03 C 11.67 72.38 9.70 75.59 7.59 78.67 C 7.24 78.72 6.54 78.82 6.18 78.87 C 3.51 76.20 2.09 72.42 0.00 69.27 L 0.00 14.47 C 1.01 12.75 2.43 11.19 4.36 10.52 M 3.37 20.03 C 5.55 20.19 7.74 20.13 9.93 20.11 C 10.08 17.52 10.50 13.93 7.04 13.49 C 3.21 13.20 2.97 17.25 3.37 20.03 M 3.34 66.93 C 5.53 67.15 7.73 67.06 9.93 67.04 C 9.95 52.53 9.93 38.03 9.94 23.52 C 7.76 23.50 5.59 23.50 3.41 23.49 C 3.30 37.97 3.45 52.45 3.34 66.93 M 4.97 70.45 C 5.31 71.65 5.96 72.72 6.59 73.79 C 7.31 72.74 7.96 71.64 8.65 70.57 C 7.42 70.51 6.20 70.48 4.97 70.45 Z" />
<path fill="#006933" opacity="1.00" d=" M 23.38 20.06 C 25.20 15.73 31.49 15.81 33.31 20.10 C 34.02 23.38 31.70 27.17 28.08 26.87 C 24.67 26.80 22.68 23.18 23.38 20.06 M 27.45 20.41 C 25.33 21.91 28.05 24.71 29.72 22.84 C 30.66 21.20 29.04 19.86 27.45 20.41 Z" />
<path fill="#006933" opacity="1.00" d=" M 36.87 20.05 C 46.62 19.96 56.37 19.97 66.13 20.04 C 67.34 21.74 66.37 24.10 64.07 23.50 C 55.00 23.29 45.88 23.93 36.85 23.16 C 36.85 22.39 36.86 20.83 36.87 20.05 Z" />
<path fill="#006933" opacity="1.00" d=" M 23.28 43.58 C 22.76 40.52 24.67 36.94 28.05 36.88 C 31.69 36.54 34.03 40.37 33.30 43.66 C 32.14 45.50 30.35 47.29 27.97 46.99 C 25.78 46.97 24.44 45.17 23.28 43.58 M 27.51 40.44 C 27.29 40.78 26.86 41.44 26.65 41.77 L 26.99 42.96 C 30.25 45.19 30.97 39.28 27.51 40.44 Z" />
<path fill="#006933" opacity="1.00" d=" M 37.38 40.44 C 46.81 40.07 56.31 40.23 65.76 40.35 C 67.90 41.64 66.17 44.43 63.94 43.61 C 54.96 43.36 45.84 44.20 36.95 43.17 L 36.59 41.89 C 36.78 41.53 37.18 40.80 37.38 40.44 Z" />
<path fill="#006933" opacity="1.00" d=" M 25.12 58.16 C 27.03 56.41 29.72 57.00 31.81 58.02 C 33.73 60.40 33.81 63.71 31.80 66.07 C 30.07 66.82 28.09 67.66 26.25 66.68 C 22.92 65.32 22.28 60.33 25.12 58.16 M 27.62 60.52 C 25.48 61.56 27.47 64.78 29.26 63.36 C 30.94 62.40 29.35 59.75 27.62 60.52 Z" />
</g>
<g id="#b6d5c3ff">
<path fill="#b6d5c3" opacity="1.00" d=" M 20.04 24.02 C 20.50 22.21 21.99 21.15 23.38 20.06 C 22.68 23.18 24.67 26.80 28.08 26.87 C 31.70 27.17 34.02 23.38 33.31 20.10 C 34.50 20.09 35.68 20.08 36.87 20.05 C 36.86 20.83 36.85 22.39 36.85 23.16 C 45.88 23.93 55.00 23.29 64.07 23.50 C 66.37 24.10 67.34 21.74 66.13 20.04 C 67.39 20.08 68.66 20.11 69.93 20.15 C 69.95 23.51 69.94 26.88 69.93 30.24 C 61.64 30.29 53.35 30.17 45.06 30.29 C 43.10 29.87 42.63 33.54 44.79 33.45 C 53.17 33.57 61.55 33.47 69.93 33.50 C 69.94 36.86 69.95 40.23 69.92 43.59 C 57.72 44.07 45.50 43.91 33.30 43.66 C 34.03 40.37 31.69 36.54 28.05 36.88 C 24.67 36.94 22.76 40.52 23.28 43.58 C 21.87 42.64 20.60 41.48 20.06 39.82 C 19.95 34.56 19.98 29.28 20.04 24.02 M 33.12 27.25 C 29.57 28.56 28.95 33.97 32.21 35.98 C 34.93 38.08 39.31 36.23 39.86 32.87 C 40.81 29.19 36.59 25.61 33.12 27.25 M 37.38 40.44 C 37.18 40.80 36.78 41.53 36.59 41.89 L 36.95 43.17 C 45.84 44.20 54.96 43.36 63.94 43.61 C 66.17 44.43 67.90 41.64 65.76 40.35 C 56.31 40.23 46.81 40.07 37.38 40.44 Z" />
<path fill="#b6d5c3" opacity="1.00" d=" M 27.45 20.41 C 29.04 19.86 30.66 21.20 29.72 22.84 C 28.05 24.71 25.33 21.91 27.45 20.41 Z" />
<path fill="#b6d5c3" opacity="1.00" d=" M 73.38 20.12 C 77.51 20.18 81.65 20.01 85.78 20.19 C 87.90 20.38 89.40 22.19 90.00 24.10 L 90.00 39.64 C 89.39 41.60 87.83 43.45 85.66 43.56 C 81.57 43.74 77.47 43.57 73.38 43.63 C 73.38 40.25 73.37 36.87 73.38 33.49 C 75.23 33.50 77.08 33.58 78.93 33.41 C 80.32 32.99 80.28 30.73 78.90 30.33 C 77.06 30.17 75.22 30.25 73.38 30.25 C 73.37 26.87 73.38 23.50 73.38 20.12 Z" />
<path fill="#b6d5c3" opacity="1.00" d=" M 27.51 40.44 C 30.97 39.28 30.25 45.19 26.99 42.96 L 26.65 41.77 C 26.86 41.44 27.29 40.78 27.51 40.44 Z" />
<path fill="#b6d5c3" opacity="1.00" d=" M 20.05 54.14 C 20.74 51.97 22.71 50.15 25.10 50.32 C 40.04 50.29 54.98 50.32 69.92 50.31 C 69.95 53.63 69.94 56.95 69.93 60.28 C 59.91 59.87 49.75 60.26 39.82 60.16 C 38.26 57.27 34.60 56.17 31.81 58.02 C 29.72 57.00 27.03 56.41 25.12 58.16 C 22.28 60.33 22.92 65.32 26.25 66.68 C 28.09 67.66 30.07 66.82 31.80 66.07 C 34.57 67.99 38.36 66.86 39.78 63.87 C 49.82 63.99 59.89 64.00 69.94 63.93 C 69.94 67.22 69.95 70.52 69.92 73.82 C 54.96 73.80 39.99 73.84 25.02 73.80 C 22.65 73.95 20.70 72.10 20.04 69.94 C 19.98 64.68 19.96 59.41 20.05 54.14 Z" />
<path fill="#b6d5c3" opacity="1.00" d=" M 73.38 50.31 C 77.48 50.37 81.59 50.20 85.69 50.37 C 87.83 50.51 89.33 52.32 90.00 54.21 L 90.00 69.85 C 89.40 71.71 87.98 73.45 85.94 73.73 C 81.76 73.94 77.57 73.75 73.39 73.82 C 73.37 70.44 73.38 67.07 73.38 63.69 C 75.56 63.41 80.70 64.95 79.79 61.15 C 77.99 59.76 75.48 60.69 73.38 60.44 C 73.37 57.06 73.38 53.68 73.38 50.31 Z" />
<path fill="#b6d5c3" opacity="1.00" d=" M 27.62 60.52 C 29.35 59.75 30.94 62.40 29.26 63.36 C 27.47 64.78 25.48 61.56 27.62 60.52 Z" />
<path fill="#b6d5c3" opacity="1.00" d=" M 73.24 80.56 C 77.48 80.51 81.73 80.40 85.96 80.58 C 87.98 80.86 89.30 82.58 90.00 84.35 L 90.00 99.96 C 89.47 101.96 87.93 103.53 85.91 104.00 L 24.15 104.00 C 21.87 103.52 19.90 101.48 20.01 99.06 C 20.01 94.00 19.92 88.93 20.10 83.87 C 36.07 83.89 52.04 83.88 68.01 83.87 C 70.34 84.13 72.20 82.48 73.24 80.56 M 33.38 87.55 C 29.82 88.61 28.86 93.83 31.83 96.08 C 34.54 98.65 39.44 96.71 39.89 93.08 C 40.65 89.55 36.75 86.19 33.38 87.55 M 43.94 90.90 C 42.29 92.37 44.24 94.50 46.00 93.88 C 56.94 93.84 67.89 93.95 78.84 93.83 C 80.75 93.32 79.98 90.14 78.02 90.65 C 66.67 90.78 55.24 90.28 43.94 90.90 Z" />
</g>
</svg>
