<?xml version="1.0" encoding="utf-8"?>
<!-- Generator: Adobe Illustrator 22.0.1, SVG Export Plug-In . SVG Version: 6.00 Build 0)  -->
<svg version="1.1" id="Layer_1" xmlns="http://www.w3.org/2000/svg" xmlns:xlink="http://www.w3.org/1999/xlink" x="0px" y="0px"
	 viewBox="0 0 304.3 116.7" style="enable-background:new 0 0 304.3 116.7;" xml:space="preserve">
<style type="text/css">
	.st0{fill:#006933;}
	.st1{fill:#F47721;}
	.st2{fill-rule:evenodd;clip-rule:evenodd;fill:#F47721;}
</style>
<g>
	<path class="st0" d="M22.5,64.6c-0.7,0-1.1,0.3-1.8,1.3L12,79.6L3.2,66c-0.6-1-1.1-1.3-1.8-1.3c-0.8,0-1.4,0.7-1.4,1.6V90
		c0,0.9,0.6,1.6,1.5,1.6c0.9,0,1.5-0.7,1.5-1.6V71.2l7.2,11.3c0.5,0.8,0.9,1.1,1.7,1.1c0.7,0,1.2-0.4,1.7-1.1l7.2-11.3V90
		c0,0.9,0.7,1.6,1.5,1.6c0.9,0,1.5-0.7,1.5-1.6V66.2C23.9,65.3,23.4,64.6,22.5,64.6L22.5,64.6z"/>
	<path class="st0" d="M32.2,62.4c-1.2,0-2.3,1-2.3,2.2c0,1.2,1,2.2,2.3,2.2c1.2,0,2.2-0.9,2.2-2.2C34.5,63.3,33.4,62.4,32.2,62.4
		L32.2,62.4z M32.2,91.6c0.9,0,1.6-0.7,1.6-1.6V73c0-0.9-0.6-1.6-1.5-1.6c-0.9,0-1.5,0.7-1.5,1.6v17C30.7,90.8,31.3,91.6,32.2,91.6
		L32.2,91.6z"/>
	<path class="st0" d="M49.5,71.7c-2.5,0-4.6,1-6,2.7V73c0-0.9-0.7-1.6-1.5-1.6c-0.9,0-1.5,0.7-1.5,1.6v17c0,0.9,0.6,1.6,1.5,1.6
		c0.8,0,1.5-0.7,1.5-1.6v-9.7c0-3.3,2.5-5.7,6-5.7c0.9,0,1.5-0.6,1.5-1.4C51,72.3,50.3,71.7,49.5,71.7L49.5,71.7z"/>
	<path class="st0" d="M73.7,91.6c5,0,8.4-3,8.4-7.3c0-3.1-1.7-5.2-6.1-7.3l-2.9-1.4c-3.4-1.6-4.2-2.5-4.2-4.4c0-2.3,1.9-3.8,4.6-3.8
		c2,0,3.8,0.8,5.3,2.4c0.3,0.3,0.7,0.5,1.1,0.5c0.8,0,1.5-0.7,1.5-1.4c0-0.4-0.1-0.8-0.6-1.3c-1.8-2-4.3-3.1-7.2-3.1
		c-4.5,0-7.9,2.9-7.9,6.8c0,2.9,1.7,5,5.9,7l2.9,1.4c3.4,1.6,4.3,2.6,4.3,4.6c0,2.6-2.1,4.3-5.3,4.3c-2.5,0-4.7-1.2-6.5-3.4
		c-0.3-0.4-0.7-0.6-1.2-0.6c-0.8,0-1.5,0.6-1.5,1.4c0,0.4,0.1,0.7,0.4,0.9C66.9,89.9,70.3,91.6,73.7,91.6L73.7,91.6z"/>
	<path class="st0" d="M96.3,71.4c-5.5,0-9.8,4.4-9.8,10.1c0,5.7,4.3,10,10.2,10c2.5,0,4.8-0.8,6.7-2.4c0.6-0.5,0.8-0.9,0.8-1.4
		c0-0.8-0.6-1.3-1.3-1.3c-0.4,0-0.7,0.2-1,0.4c-1.4,1.2-3.1,1.9-5,1.9c-3.9,0-6.7-2.5-7.1-6.3h13.6c1.2,0,1.9-0.6,1.9-1.9v-0.2
		C105.1,75.2,101.4,71.4,96.3,71.4L96.3,71.4z M96.2,74.2c3.4,0,5.7,2.3,5.7,5.5H89.7C90.4,76.5,92.9,74.2,96.2,74.2L96.2,74.2z"/>
	<path class="st0" d="M119.1,91.6c3.5,0,6.2-1.7,7.8-4c0.2-0.4,0.3-0.6,0.3-0.8c0-0.8-0.6-1.4-1.4-1.4c-0.3,0-0.7,0.1-1.1,0.5
		c-1.3,1.6-3.1,2.9-5.6,2.9c-4,0-7-3.1-7-7.3c0-4.1,3-7.2,7-7.2c2.5,0,4.3,1.3,5.6,2.9c0.4,0.5,0.8,0.6,1.1,0.6
		c0.8,0,1.4-0.6,1.4-1.4c0-0.2,0-0.5-0.3-0.8c-1.6-2.4-4.3-4-7.8-4c-5.6,0-10.1,4.4-10.1,10C109,87.1,113.5,91.6,119.1,91.6
		L119.1,91.6z"/>
	<path class="st0" d="M140.5,71.4c-5.7,0-10.1,4.4-10.1,10c0,5.6,4.4,10,10,10c5.7,0,10.1-4.5,10.1-10
		C150.6,75.9,146.1,71.4,140.5,71.4L140.5,71.4z M140.5,74.3c4,0,7,3.1,7,7.3c0,4.1-3,7.2-7,7.2c-4,0-6.9-3.1-6.9-7.2
		C133.5,77.4,136.5,74.3,140.5,74.3L140.5,74.3z"/>
	<path class="st0" d="M164.7,71.4c-2.3,0-4.3,0.9-5.7,2.3V73c0-0.9-0.7-1.6-1.5-1.6c-0.9,0-1.5,0.7-1.5,1.6v17
		c0,0.9,0.6,1.6,1.5,1.6c0.8,0,1.5-0.7,1.5-1.6V79.4c0-3,2.1-5.1,5.1-5.1c2.8,0,4.8,2,4.8,5.1V90c0,0.9,0.6,1.6,1.5,1.6
		c0.8,0,1.5-0.7,1.5-1.6V79C171.8,74.4,169.1,71.4,164.7,71.4L164.7,71.4z"/>
	<path class="st0" d="M195.1,61.1c-0.9,0-1.5,0.7-1.5,1.6v12.1c-1.5-2-4.1-3.3-7.1-3.3c-5.4,0-9.5,4.3-9.5,10.1c0,5.7,4.1,10,9.5,10
		c3,0,5.6-1.3,7.1-3.3V90c0,0.9,0.6,1.6,1.5,1.6c0.8,0,1.5-0.7,1.5-1.6V62.6C196.6,61.7,195.9,61.1,195.1,61.1L195.1,61.1z
		 M186.8,88.8c-4,0-6.8-3.1-6.8-7.3c0-4.1,2.9-7.2,6.8-7.2c4,0,6.7,3,6.7,7.3C193.6,85.8,190.8,88.8,186.8,88.8L186.8,88.8z"/>
	<path class="st0" d="M216.1,91.6c0.9,0,1.5-0.7,1.5-1.6V78.6h14.6V90c0,0.9,0.7,1.6,1.5,1.6c0.9,0,1.5-0.7,1.5-1.6V66.2
		c0-0.9-0.6-1.6-1.5-1.6c-0.9,0-1.5,0.7-1.5,1.6v9.6h-14.6v-9.6c0-0.9-0.7-1.6-1.5-1.6c-0.9,0-1.5,0.7-1.5,1.6V90
		C214.5,90.8,215.2,91.6,216.1,91.6L216.1,91.6z"/>
	<path class="st0" d="M249,71.4c-2.8,0-5.4,1.1-7,3c-0.4,0.4-0.6,0.9-0.6,1.3c0,0.6,0.6,1.3,1.4,1.3c0.4,0,0.8-0.2,1.2-0.6
		c1.3-1.4,3-2.2,4.8-2.2c3,0,4.7,1.7,4.7,4.9v1.7h-6.1c-4.2,0-6.9,2.1-6.9,5.4c0,3.2,2.7,5.4,6.7,5.4c2.7,0,4.9-1,6.3-2.7V90
		c0,0.9,0.7,1.6,1.5,1.6c0.8,0,1.5-0.7,1.5-1.6V79.3C256.5,74.4,253.7,71.4,249,71.4L249,71.4z M247.6,89c-2.4,0-4-1.2-4-3
		c0-1.8,1.4-2.8,4.1-2.8h5.7v0.5C253.5,86.7,250.8,89,247.6,89L247.6,89z"/>
	<path class="st0" d="M271.7,71.4c-2.3,0-4.3,0.9-5.7,2.3V73c0-0.9-0.7-1.6-1.5-1.6c-0.9,0-1.5,0.7-1.5,1.6v17
		c0,0.9,0.6,1.6,1.5,1.6c0.8,0,1.5-0.7,1.5-1.6V79.4c0-3,2.1-5.1,5.1-5.1c2.8,0,4.8,2,4.8,5.1V90c0,0.9,0.6,1.6,1.5,1.6
		c0.8,0,1.5-0.7,1.5-1.6V79C278.9,74.4,276.1,71.4,271.7,71.4L271.7,71.4z"/>
	<path class="st0" d="M302.1,61.1c-0.9,0-1.5,0.7-1.5,1.6v12.1c-1.5-2-4.1-3.3-7.1-3.3c-5.4,0-9.5,4.3-9.5,10.1c0,5.7,4.1,10,9.5,10
		c3,0,5.6-1.3,7.1-3.3V90c0,0.9,0.6,1.6,1.5,1.6c0.8,0,1.5-0.7,1.5-1.6V62.6C303.6,61.7,302.9,61.1,302.1,61.1L302.1,61.1z
		 M293.9,88.8c-4,0-6.8-3.1-6.8-7.3c0-4.1,2.9-7.2,6.8-7.2c4,0,6.7,3,6.7,7.3C300.6,85.8,297.9,88.8,293.9,88.8L293.9,88.8z"/>
	<path d="M48.9,114.6c1.3,0,2.3-0.6,2.9-1.5c0.1-0.1,0.1-0.2,0.1-0.3c0-0.3-0.2-0.5-0.5-0.5c-0.1,0-0.3,0-0.4,0.2
		c-0.5,0.6-1.2,1.1-2.1,1.1c-1.5,0-2.6-1.2-2.6-2.7c0-1.5,1.1-2.7,2.6-2.7c0.9,0,1.6,0.5,2.1,1.1c0.1,0.2,0.3,0.2,0.4,0.2
		c0.3,0,0.5-0.2,0.5-0.5c0-0.1,0-0.2-0.1-0.3c-0.6-0.9-1.6-1.5-2.9-1.5c-2.1,0-3.8,1.7-3.8,3.8C45.1,113,46.8,114.6,48.9,114.6
		L48.9,114.6z"/>
	<path d="M61.8,107.1c-2.1,0-3.7,1.7-3.7,3.8c0,2.2,1.6,3.8,3.8,3.8c0.9,0,1.8-0.3,2.5-0.9c0.2-0.2,0.3-0.3,0.3-0.5
		c0-0.3-0.2-0.5-0.5-0.5c-0.1,0-0.3,0.1-0.4,0.2c-0.5,0.4-1.2,0.7-1.9,0.7c-1.5,0-2.5-1-2.7-2.4h5.1c0.4,0,0.7-0.2,0.7-0.7v-0.1
		C65.1,108.5,63.8,107.1,61.8,107.1L61.8,107.1z M61.8,108.1c1.3,0,2.1,0.9,2.2,2.1h-4.6C59.6,109,60.6,108.1,61.8,108.1L61.8,108.1
		z"/>
	<path d="M72.8,107.1c-0.3,0-0.6,0.3-0.6,0.6v6.4c0,0.3,0.2,0.6,0.6,0.6c0.3,0,0.6-0.3,0.6-0.6v-6.4
		C73.4,107.3,73.2,107.1,72.8,107.1L72.8,107.1z M78,113.7l-2.9-3.1l2.5-2.6c0.1-0.1,0.2-0.3,0.2-0.4c0-0.3-0.3-0.5-0.6-0.5
		c-0.2,0-0.3,0.1-0.4,0.2l-2.8,2.9c-0.1,0.1-0.2,0.3-0.2,0.4c0,0.1,0.1,0.3,0.1,0.4l3.2,3.5c0.1,0.1,0.2,0.2,0.4,0.2
		c0.3,0,0.6-0.3,0.6-0.5C78.1,113.9,78.1,113.8,78,113.7L78,113.7z"/>
	<path d="M88,107.1c-2.1,0-3.8,1.6-3.8,3.8c0,2.1,1.7,3.8,3.8,3.8c2.1,0,3.8-1.7,3.8-3.8C91.8,108.7,90.1,107.1,88,107.1L88,107.1z
		 M88,108.1c1.5,0,2.6,1.2,2.6,2.7c0,1.5-1.1,2.7-2.6,2.7c-1.5,0-2.6-1.2-2.6-2.7C85.4,109.3,86.5,108.1,88,108.1L88,108.1z"/>
	<path d="M104.3,107.1c-0.3,0-0.6,0.3-0.6,0.6v2.5H100v-2.5c0-0.3-0.3-0.6-0.6-0.6c-0.3,0-0.6,0.3-0.6,0.6v6.4
		c0,0.3,0.2,0.6,0.6,0.6c0.3,0,0.6-0.3,0.6-0.6v-2.9h3.7v2.9c0,0.3,0.2,0.6,0.6,0.6c0.3,0,0.6-0.3,0.6-0.6v-6.4
		C104.9,107.3,104.6,107.1,104.3,107.1L104.3,107.1z"/>
	<path d="M119.3,113.5h-0.6v-5.6c0-0.3-0.3-0.6-0.6-0.6h-3.5c-0.3,0-0.6,0.3-0.6,0.6v0c0,2.9-0.4,4.6-1.4,5.6h-0.1
		c-0.3,0-0.6,0.3-0.6,0.6v2.1c0,0.3,0.3,0.6,0.6,0.6c0.3,0,0.6-0.3,0.6-0.6v-1.7h5.8v1.7c0,0.3,0.2,0.6,0.6,0.6
		c0.3,0,0.6-0.3,0.6-0.6v-2.1C119.9,113.7,119.6,113.5,119.3,113.5L119.3,113.5z M115.2,108.3h2.4v5.2h-3.6
		C114.8,112.5,115.2,111,115.2,108.3L115.2,108.3z"/>
	<path d="M140.5,113.7l-2.2-3l2-2.7c0.1-0.2,0.2-0.3,0.2-0.4c0-0.3-0.3-0.5-0.6-0.5c-0.2,0-0.4,0.1-0.5,0.3l-1.9,2.5l-1.9-2.5
		c-0.1-0.2-0.3-0.3-0.5-0.3c-0.3,0-0.6,0.3-0.6,0.5c0,0.1,0,0.3,0.2,0.4l2,2.7l-2.2,3c-0.1,0.1-0.1,0.2-0.1,0.4
		c0,0.3,0.2,0.5,0.6,0.5c0.2,0,0.4-0.1,0.5-0.3l2-2.7l2,2.7c0.1,0.2,0.3,0.3,0.5,0.3c0.3,0,0.6-0.3,0.6-0.5
		C140.6,114,140.5,113.8,140.5,113.7L140.5,113.7z"/>
	<path d="M150.5,107.1c-2.1,0-3.7,1.7-3.7,3.8c0,2.2,1.6,3.8,3.8,3.8c0.9,0,1.8-0.3,2.5-0.9c0.2-0.2,0.3-0.3,0.3-0.5
		c0-0.3-0.2-0.5-0.5-0.5c-0.1,0-0.3,0.1-0.4,0.2c-0.5,0.4-1.2,0.7-1.9,0.7c-1.5,0-2.5-1-2.7-2.4h5.1c0.4,0,0.7-0.2,0.7-0.7v-0.1
		C153.8,108.5,152.4,107.1,150.5,107.1L150.5,107.1z M150.4,108.1c1.3,0,2.1,0.9,2.2,2.1H148C148.3,109,149.2,108.1,150.4,108.1
		L150.4,108.1z"/>
	<path d="M166.3,107.1c-0.3,0-0.6,0.3-0.6,0.6v2.5H162v-2.5c0-0.3-0.3-0.6-0.6-0.6c-0.3,0-0.6,0.3-0.6,0.6v6.4
		c0,0.3,0.2,0.6,0.6,0.6c0.3,0,0.6-0.3,0.6-0.6v-2.9h3.7v2.9c0,0.3,0.2,0.6,0.6,0.6c0.3,0,0.6-0.3,0.6-0.6v-6.4
		C166.9,107.3,166.6,107.1,166.3,107.1L166.3,107.1z"/>
	<path d="M181.3,113.5h-0.6v-5.6c0-0.3-0.3-0.6-0.6-0.6h-3.5c-0.3,0-0.6,0.3-0.6,0.6v0c0,2.9-0.4,4.6-1.4,5.6h-0.1
		c-0.3,0-0.6,0.3-0.6,0.6v2.1c0,0.3,0.3,0.6,0.6,0.6c0.3,0,0.6-0.3,0.6-0.6v-1.7h5.8v1.7c0,0.3,0.2,0.6,0.6,0.6
		c0.3,0,0.6-0.3,0.6-0.6v-2.1C181.9,113.7,181.6,113.5,181.3,113.5L181.3,113.5z M177.2,108.3h2.4v5.2h-3.6
		C176.8,112.5,177.2,111,177.2,108.3L177.2,108.3z"/>
	<path d="M200.4,107.1c-2.1,0-3.8,1.6-3.8,3.8c0,2.1,1.7,3.8,3.8,3.8c2.1,0,3.8-1.7,3.8-3.8C204.2,108.7,202.5,107.1,200.4,107.1
		L200.4,107.1z M200.4,108.1c1.5,0,2.6,1.2,2.6,2.7c0,1.5-1.1,2.7-2.6,2.7c-1.5,0-2.6-1.2-2.6-2.7
		C197.7,109.3,198.9,108.1,200.4,108.1L200.4,108.1z"/>
	<path d="M211.8,114.6c0.3,0,0.6-0.3,0.6-0.6v-5.8h3.6v5.8c0,0.3,0.2,0.6,0.6,0.6c0.3,0,0.6-0.3,0.6-0.6v-6.3c0-0.3-0.3-0.6-0.6-0.6
		h-4.8c-0.3,0-0.6,0.3-0.6,0.6v6.3C211.3,114.4,211.5,114.6,211.8,114.6L211.8,114.6z"/>
	<path d="M227,114.6c0.3,0,0.6-0.3,0.6-0.6v-5.8h2.1c0.3,0,0.5-0.2,0.5-0.5c0-0.3-0.2-0.5-0.5-0.5h-5.4c-0.3,0-0.5,0.2-0.5,0.5
		c0,0.3,0.2,0.5,0.5,0.5h2.1v5.8C226.4,114.4,226.7,114.6,227,114.6L227,114.6z"/>
	<path d="M240,107.1c-2.1,0-3.8,1.6-3.8,3.8c0,2.1,1.7,3.8,3.8,3.8c2.1,0,3.8-1.7,3.8-3.8C243.7,108.7,242.1,107.1,240,107.1
		L240,107.1z M240,108.1c1.5,0,2.6,1.2,2.6,2.7c0,1.5-1.1,2.7-2.6,2.7c-1.5,0-2.6-1.2-2.6-2.7C237.3,109.3,238.5,108.1,240,108.1
		L240,108.1z"/>
	<path d="M251.4,114.6c0.3,0,0.6-0.3,0.6-0.6v-4.7l2.2,2.9c0.1,0.1,0.3,0.2,0.4,0.2c0.2,0,0.3-0.1,0.4-0.2l2.2-2.9v4.7
		c0,0.3,0.2,0.6,0.6,0.6c0.3,0,0.6-0.3,0.6-0.6v-6.4c0-0.3-0.2-0.6-0.6-0.6c-0.2,0-0.3,0.1-0.4,0.2l-2.8,3.8l-2.8-3.8
		c-0.1-0.1-0.3-0.2-0.4-0.2c-0.3,0-0.6,0.3-0.6,0.6v6.4C250.9,114.4,251.1,114.6,251.4,114.6L251.4,114.6z"/>
	<path d="M175.8,43.7c-0.9,0-1.8-0.3-2.5-0.7l-14.8-9.6c-0.5-0.3-0.6-1-0.3-1.5c0.3-0.5,1-0.6,1.5-0.3l14.8,9.6
		c0.6,0.4,1.3,0.5,1.9,0.3c0.7-0.2,1.2-0.6,1.6-1.2c0.6-1.1,0.3-2.6-0.8-3.3l-20.5-12.9c-0.9-0.6-2-0.9-3.1-0.9h-9.7v2.5
		c0,2.4-2,4.4-4.4,4.4c-2.4,0-4.4-2-4.4-4.4v-7.3c0-1.1,0.7-2.2,1.7-2.6l8.4-4c0.1-0.1,0.3-0.1,0.5-0.1h22.9c0.6,0,1.1,0.5,1.1,1.1
		c0,0.6-0.5,1.1-1.1,1.1H146l-8.2,3.8c-0.3,0.1-0.4,0.4-0.4,0.7v7.3c0,1.2,1,2.2,2.2,2.2c1.2,0,2.2-1,2.2-2.2v-3.6
		c0-0.6,0.5-1.1,1.1-1.1h10.7c1.5,0,2.9,0.4,4.2,1.2l20.5,12.9c2.1,1.3,2.8,4,1.6,6.1c-0.6,1.1-1.7,1.9-2.9,2.2
		C176.6,43.7,176.2,43.7,175.8,43.7L175.8,43.7z"/>
	<path d="M167.3,47.1c-0.9,0-1.9-0.3-2.7-0.8l-10.4-7c-0.5-0.3-0.6-1-0.3-1.5c0.3-0.5,1-0.6,1.5-0.3l10.4,7c0.6,0.4,1.3,0.5,2,0.4
		c0.7-0.1,1.3-0.6,1.7-1.2c0.8-1.2,0.4-2.9-0.8-3.7l-9.5-6.2c-0.5-0.3-0.6-1-0.3-1.5c0.3-0.5,1-0.6,1.5-0.3l9.5,6.2
		c2.2,1.4,2.8,4.4,1.4,6.6c-0.7,1.1-1.8,1.9-3.1,2.1C167.9,47.1,167.6,47.1,167.3,47.1L167.3,47.1z"/>
	<path d="M160.1,51.2c-0.9,0-1.8-0.2-2.6-0.8l-7.2-4.6c-0.5-0.3-0.6-1-0.3-1.5c0.3-0.5,1-0.6,1.5-0.3l7.2,4.6
		c1.2,0.7,2.7,0.5,3.5-0.6c0.4-0.6,0.6-1.3,0.5-2c-0.1-0.7-0.5-1.3-1.1-1.7l-4.7-3.1c-0.5-0.3-0.6-1-0.3-1.5c0.3-0.5,1-0.6,1.5-0.3
		l4.7,3.1c1.1,0.7,1.8,1.9,2,3.2c0.2,1.3-0.1,2.6-0.9,3.7C163,50.6,161.6,51.2,160.1,51.2L160.1,51.2z"/>
	<path d="M151.4,54.1c-0.8,0-1.7-0.2-2.4-0.7l-0.8-0.5c-0.5-0.3-0.7-1-0.4-1.5c0.3-0.5,1-0.7,1.5-0.4l0.8,0.5
		c1.1,0.7,2.6,0.4,3.3-0.7c0.4-0.6,0.5-1.2,0.4-1.9c-0.1-0.7-0.5-1.3-1.1-1.6l-1.8-1.1c-0.5-0.3-0.6-1-0.3-1.5
		c0.3-0.5,1-0.6,1.5-0.3l1.8,1.1c1.1,0.7,1.8,1.8,2,3c0.2,1.3,0,2.5-0.8,3.6C154.3,53.4,152.8,54.1,151.4,54.1L151.4,54.1z"/>
	<path d="M145.2,48.3c-0.6,0-1.2,0.2-1.6,0.7l-0.4,0.4c-0.4,0.4-0.6,1-0.5,1.6c0,0.6,0.3,1.1,0.8,1.5c0.9,0.7,2.2,0.6,2.9-0.2
		l0.4-0.4c0.4-0.4,0.6-1,0.6-1.6c0-0.6-0.3-1.1-0.8-1.5C146.1,48.4,145.7,48.3,145.2,48.3L145.2,48.3z M144.8,55.1
		c-0.9,0-1.9-0.3-2.7-0.9c-0.9-0.7-1.5-1.8-1.6-3c-0.1-1.2,0.3-2.3,1.1-3.2l0.4-0.4c1.5-1.7,4.1-1.9,5.9-0.5c1,0.8,1.5,1.9,1.6,3.1
		c0.1,1.2-0.3,2.4-1.1,3.2l-0.4,0.4C147.1,54.7,146,55.1,144.8,55.1L144.8,55.1z"/>
	<path d="M143.3,40.5c-0.6,0-1.2,0.3-1.6,0.7l-4.5,5.1c-0.4,0.4-0.6,1-0.5,1.6c0,0.6,0.3,1.1,0.8,1.5c0.9,0.7,2.2,0.6,3-0.2l4.6-5.1
		c0.4-0.4,0.6-1,0.6-1.6c0-0.6-0.3-1.1-0.8-1.5C144.3,40.7,143.8,40.5,143.3,40.5L143.3,40.5z M138.8,52.1c-1,0-1.9-0.3-2.7-1
		c-0.9-0.8-1.5-1.8-1.6-3c-0.1-1.2,0.3-2.3,1.1-3.2l4.5-5.1c1.6-1.8,4.2-2,6-0.5l-0.6,0.9l0.7-0.8c0.9,0.8,1.5,1.8,1.6,3
		c0.1,1.2-0.3,2.3-1.1,3.2l-4.6,5.1C141.1,51.7,140,52.1,138.8,52.1L138.8,52.1z"/>
	<path d="M135.9,38.8c-0.7,0-1.3,0.3-1.8,0.8l-1.5,1.9c-0.4,0.5-0.6,1.1-0.5,1.7c0.1,0.6,0.4,1.1,0.8,1.5c0.9,0.7,2.3,0.6,3.1-0.3
		l1.6-1.8c0.4-0.5,0.6-1.1,0.6-1.7c-0.1-0.6-0.4-1.2-0.9-1.6C136.9,39,136.4,38.8,135.9,38.8L135.9,38.8z M134.3,47.4
		c-0.9,0-1.9-0.3-2.7-0.9c-0.9-0.7-1.5-1.8-1.7-3c-0.1-1.2,0.2-2.3,1-3.3l1.5-1.9c1.5-1.9,4.3-2.2,6.2-0.7c1,0.7,1.6,1.9,1.7,3.1
		c0.1,1.2-0.3,2.4-1.1,3.4l-1.6,1.8C136.7,46.9,135.5,47.4,134.3,47.4L134.3,47.4z"/>
	<path d="M130.5,35.6c-0.6,0-1.1,0.2-1.5,0.7l-0.7,0.8c-0.4,0.4-0.5,0.9-0.4,1.5c0.1,0.5,0.3,1,0.8,1.4c0.9,0.7,2.1,0.5,2.7-0.3
		l0.7-0.8c0.3-0.4,0.5-0.9,0.4-1.5c-0.1-0.5-0.3-1-0.8-1.3C131.3,35.7,130.9,35.6,130.5,35.6L130.5,35.6z M129.8,42.5
		c-0.9,0-1.7-0.3-2.5-0.8c-0.9-0.7-1.5-1.7-1.7-2.8c-0.1-1.1,0.2-2.3,0.9-3.1l0.7-0.8c1.4-1.7,3.9-1.9,5.6-0.6
		c0.9,0.7,1.5,1.7,1.6,2.8c0.1,1.1-0.2,2.2-0.9,3.1L133,41C132.2,42,131,42.5,129.8,42.5L129.8,42.5z"/>
	<path d="M128.2,36.7c-0.3,0-0.6-0.1-0.8-0.3l-6.1-6.3c-0.4-0.4-0.4-0.9-0.1-1.4l10.9-15.4c0.2-0.3,0.5-0.5,0.9-0.5h10.6
		c0.6,0,1.1,0.5,1.1,1.1c0,0.6-0.5,1.1-1.1,1.1h-10.1l-10.1,14.3l5.4,5.7c0.4,0.4,0.4,1.1,0,1.5C128.7,36.6,128.4,36.7,128.2,36.7
		L128.2,36.7z"/>
	<path class="st0" d="M119.9,31.5c-0.6,0-1.3-0.2-1.8-0.5l-7.4-4.2c-0.5-0.3-0.7-0.9-0.4-1.5c0.3-0.5,0.9-0.7,1.5-0.4l7.4,4.2
		c0.7,0.4,1.6,0.2,2.1-0.5l11.1-15.8c0.5-0.7,0.4-1.6-0.3-2.1l-10.6-8.8c-0.5-0.4-0.5-1.1-0.1-1.5c0.4-0.5,1.1-0.5,1.5-0.1L133.4,9
		c1.5,1.3,1.8,3.4,0.7,5L123,29.9C122.3,30.9,121.1,31.5,119.9,31.5L119.9,31.5z"/>
	<path d="M175.2,35.6c-0.3,0-0.5-0.1-0.8-0.3c-0.4-0.4-0.4-1.1,0-1.5l4.8-4.9c0.4-0.4,1.1-0.4,1.5,0c0.4,0.4,0.4,1.1,0,1.5l-4.8,4.9
		C175.7,35.5,175.4,35.6,175.2,35.6L175.2,35.6z"/>
	<path class="st0" d="M116.4,25.8c-0.2,0-0.4-0.1-0.6-0.2c-0.5-0.3-0.6-1-0.3-1.5l5.7-8.4c0.3-0.5,1-0.6,1.5-0.3
		c0.5,0.3,0.6,1,0.3,1.5l-5.7,8.4C117,25.7,116.7,25.8,116.4,25.8L116.4,25.8z"/>
	<path class="st1" d="M185.4,27c-0.4,0-0.7-0.2-0.9-0.5l-5.4-8.7c-0.3-0.5-0.2-1.2,0.3-1.5c0.5-0.3,1.2-0.2,1.5,0.3l5.4,8.7
		c0.3,0.5,0.2,1.2-0.3,1.5C185.8,26.9,185.6,27,185.4,27L185.4,27z"/>
	<polygon class="st2" points="38.3,109.8 0.8,109.8 0.8,111 38.3,111 38.3,109.8 	"/>
	<polygon class="st2" points="304.3,109.8 266.8,109.8 266.8,111 304.3,111 304.3,109.8 	"/>
	<path class="st1" d="M183.2,33.4c-1.2,0-2.4-0.6-3.1-1.7c-2.7-4-8.7-13-12-18c-1.1-1.6-0.7-3.9,0.9-5l9.7-7.4
		c0.5-0.4,1.1-0.3,1.5,0.2c0.4,0.5,0.3,1.1-0.2,1.5l-9.7,7.4c-0.7,0.5-0.8,1.5-0.4,2.2c3.3,5,9.2,13.9,12,18
		c0.5,0.7,1.4,0.9,2.2,0.5l7.9-5c0.5-0.3,1.2-0.2,1.5,0.3c0.3,0.5,0.2,1.2-0.3,1.5l-7.9,5C184.6,33.2,183.9,33.4,183.2,33.4
		L183.2,33.4z"/>
</g>
</svg>
